<svg width="157" height="18" viewBox="0 0 157 18" fill="none" xmlns="http://www.w3.org/2000/svg">
<path d="M6.92896 13.716C5.65696 13.716 4.56496 13.446 3.65296 12.906C2.74096 12.354 2.03896 11.592 1.54696 10.62C1.05496 9.636 0.808962 8.502 0.808962 7.218C0.808962 5.934 1.05496 4.8 1.54696 3.816C2.03896 2.832 2.74096 2.064 3.65296 1.512C4.56496 0.96 5.65696 0.684 6.92896 0.684C8.44096 0.684 9.67696 1.062 10.637 1.818C11.609 2.562 12.215 3.612 12.455 4.968H9.91696C9.76096 4.284 9.42496 3.75 8.90896 3.366C8.40496 2.97 7.73296 2.772 6.89296 2.772C5.72896 2.772 4.81696 3.168 4.15696 3.96C3.49696 4.752 3.16696 5.838 3.16696 7.218C3.16696 8.598 3.49696 9.684 4.15696 10.476C4.81696 11.256 5.72896 11.646 6.89296 11.646C7.73296 11.646 8.40496 11.466 8.90896 11.106C9.42496 10.734 9.76096 10.224 9.91696 9.576H12.455C12.215 10.872 11.609 11.886 10.637 12.618C9.67696 13.35 8.44096 13.716 6.92896 13.716ZM19.2244 13.716C18.3604 13.716 17.5804 13.518 16.8844 13.122C16.2004 12.726 15.6544 12.18 15.2464 11.484C14.8504 10.776 14.6524 9.96 14.6524 9.036C14.6524 8.112 14.8564 7.302 15.2644 6.606C15.6724 5.898 16.2184 5.346 16.9024 4.95C17.5984 4.554 18.3784 4.356 19.2424 4.356C20.0944 4.356 20.8624 4.554 21.5464 4.95C22.2424 5.346 22.7884 5.898 23.1844 6.606C23.5924 7.302 23.7964 8.112 23.7964 9.036C23.7964 9.96 23.5924 10.776 23.1844 11.484C22.7884 12.18 22.2424 12.726 21.5464 13.122C20.8504 13.518 20.0764 13.716 19.2244 13.716ZM19.2244 11.718C19.8244 11.718 20.3464 11.496 20.7904 11.052C21.2344 10.596 21.4564 9.924 21.4564 9.036C21.4564 8.148 21.2344 7.482 20.7904 7.038C20.3464 6.582 19.8304 6.354 19.2424 6.354C18.6304 6.354 18.1024 6.582 17.6584 7.038C17.2264 7.482 17.0104 8.148 17.0104 9.036C17.0104 9.924 17.2264 10.596 17.6584 11.052C18.1024 11.496 18.6244 11.718 19.2244 11.718ZM26.3565 17.46V4.572H28.4085L28.6605 5.85C28.9485 5.454 29.3265 5.106 29.7945 4.806C30.2745 4.506 30.8925 4.356 31.6485 4.356C32.4885 4.356 33.2385 4.56 33.8985 4.968C34.5585 5.376 35.0805 5.934 35.4645 6.642C35.8485 7.35 36.0405 8.154 36.0405 9.054C36.0405 9.954 35.8485 10.758 35.4645 11.466C35.0805 12.162 34.5585 12.714 33.8985 13.122C33.2385 13.518 32.4885 13.716 31.6485 13.716C30.9765 13.716 30.3885 13.59 29.8845 13.338C29.3805 13.086 28.9725 12.732 28.6605 12.276V17.46H26.3565ZM31.1625 11.7C31.8945 11.7 32.5005 11.454 32.9805 10.962C33.4605 10.47 33.7005 9.834 33.7005 9.054C33.7005 8.274 33.4605 7.632 32.9805 7.128C32.5005 6.624 31.8945 6.372 31.1625 6.372C30.4185 6.372 29.8065 6.624 29.3265 7.128C28.8585 7.62 28.6245 8.256 28.6245 9.036C28.6245 9.816 28.8585 10.458 29.3265 10.962C29.8065 11.454 30.4185 11.7 31.1625 11.7ZM38.9061 17.46L40.9761 12.906H40.4361L36.9621 4.572H39.4641L41.9661 10.854L44.5761 4.572H47.0241L41.3541 17.46H38.9061ZM49.0303 13.5V4.572H51.0823L51.2983 6.246C51.6223 5.67 52.0603 5.214 52.6123 4.878C53.1763 4.53 53.8363 4.356 54.5923 4.356V6.786H53.9443C53.4403 6.786 52.9903 6.864 52.5943 7.02C52.1983 7.176 51.8863 7.446 51.6583 7.83C51.4423 8.214 51.3343 8.748 51.3343 9.432V13.5H49.0303ZM57.909 3.186C57.489 3.186 57.141 3.06 56.865 2.808C56.601 2.556 56.469 2.238 56.469 1.854C56.469 1.47 56.601 1.158 56.865 0.917999C57.141 0.665999 57.489 0.539999 57.909 0.539999C58.329 0.539999 58.671 0.665999 58.935 0.917999C59.211 1.158 59.349 1.47 59.349 1.854C59.349 2.238 59.211 2.556 58.935 2.808C58.671 3.06 58.329 3.186 57.909 3.186ZM56.757 13.5V4.572H59.061V13.5H56.757ZM65.7458 10.836C65.3138 10.836 64.9118 10.788 64.5398 10.692L63.8738 11.358C64.0778 11.466 64.3538 11.556 64.7018 11.628C65.0498 11.7 65.6138 11.772 66.3938 11.844C67.5818 11.952 68.4458 12.234 68.9858 12.69C69.5258 13.146 69.7958 13.776 69.7958 14.58C69.7958 15.108 69.6518 15.606 69.3638 16.074C69.0758 16.554 68.6318 16.938 68.0318 17.226C67.4318 17.526 66.6638 17.676 65.7278 17.676C64.4558 17.676 63.4298 17.436 62.6498 16.956C61.8698 16.488 61.4798 15.78 61.4798 14.832C61.4798 14.028 61.8698 13.332 62.6498 12.744C62.4098 12.636 62.1998 12.522 62.0198 12.402C61.8518 12.282 61.7018 12.156 61.5698 12.024V11.61L63.1358 9.954C62.4398 9.342 62.0918 8.556 62.0918 7.596C62.0918 6.996 62.2358 6.45 62.5238 5.958C62.8238 5.466 63.2438 5.076 63.7838 4.788C64.3238 4.5 64.9778 4.356 65.7458 4.356C66.2498 4.356 66.7178 4.428 67.1498 4.572H70.5338V5.976L69.0038 6.084C69.2438 6.54 69.3638 7.044 69.3638 7.596C69.3638 8.196 69.2198 8.742 68.9318 9.234C68.6438 9.726 68.2238 10.116 67.6718 10.404C67.1318 10.692 66.4898 10.836 65.7458 10.836ZM65.7458 9.072C66.2138 9.072 66.5978 8.946 66.8978 8.694C67.2098 8.442 67.3658 8.082 67.3658 7.614C67.3658 7.146 67.2098 6.786 66.8978 6.534C66.5978 6.282 66.2138 6.156 65.7458 6.156C65.2538 6.156 64.8578 6.282 64.5578 6.534C64.2578 6.786 64.1078 7.146 64.1078 7.614C64.1078 8.082 64.2578 8.442 64.5578 8.694C64.8578 8.946 65.2538 9.072 65.7458 9.072ZM63.5858 14.598C63.5858 15.042 63.7898 15.372 64.1978 15.588C64.6178 15.816 65.1278 15.93 65.7278 15.93C66.3038 15.93 66.7718 15.81 67.1318 15.57C67.4918 15.342 67.6718 15.03 67.6718 14.634C67.6718 14.31 67.5518 14.04 67.3118 13.824C67.0838 13.608 66.6218 13.476 65.9258 13.428C65.4338 13.392 64.9778 13.338 64.5578 13.266C64.2098 13.458 63.9578 13.668 63.8018 13.896C63.6578 14.124 63.5858 14.358 63.5858 14.598ZM72.7139 13.5V0.539999H75.0179V5.94C75.3179 5.448 75.7199 5.064 76.2239 4.788C76.7399 4.5 77.3279 4.356 77.9879 4.356C79.0919 4.356 79.9439 4.704 80.5439 5.4C81.1559 6.096 81.4619 7.116 81.4619 8.46V13.5H79.1759V8.676C79.1759 7.908 79.0199 7.32 78.7079 6.912C78.4079 6.504 77.9279 6.3 77.2679 6.3C76.6199 6.3 76.0799 6.528 75.6479 6.984C75.2279 7.44 75.0179 8.076 75.0179 8.892V13.5H72.7139ZM88.1431 13.5C87.2071 13.5 86.4571 13.272 85.8931 12.816C85.3291 12.36 85.0471 11.55 85.0471 10.386V6.498H83.5171V4.572H85.0471L85.3171 2.178H87.3511V4.572H89.7631V6.498H87.3511V10.404C87.3511 10.836 87.4411 11.136 87.6211 11.304C87.8131 11.46 88.1371 11.538 88.5931 11.538H89.7091V13.5H88.1431ZM102.934 13.608C101.698 13.608 100.606 13.332 99.6583 12.78C98.7223 12.228 97.9843 11.472 97.4443 10.512C96.9163 9.54 96.6523 8.424 96.6523 7.164C96.6523 5.916 96.9163 4.812 97.4443 3.852C97.9843 2.88 98.7223 2.124 99.6583 1.584C100.606 1.032 101.698 0.756 102.934 0.756C104.182 0.756 105.274 1.032 106.21 1.584C107.158 2.124 107.896 2.88 108.424 3.852C108.952 4.812 109.216 5.916 109.216 7.164C109.216 8.424 108.952 9.54 108.424 10.512C107.896 11.472 107.158 12.228 106.21 12.78C105.274 13.332 104.182 13.608 102.934 13.608ZM102.934 12.762C104.05 12.762 105.01 12.528 105.814 12.06C106.618 11.592 107.236 10.938 107.668 10.098C108.112 9.258 108.334 8.28 108.334 7.164C108.334 6.048 108.112 5.07 107.668 4.23C107.236 3.39 106.618 2.742 105.814 2.286C105.01 1.818 104.05 1.584 102.934 1.584C101.83 1.584 100.876 1.818 100.072 2.286C99.2683 2.742 98.6443 3.39 98.2003 4.23C97.7683 5.07 97.5523 6.048 97.5523 7.164C97.5523 8.28 97.7683 9.258 98.2003 10.098C98.6443 10.938 99.2683 11.592 100.072 12.06C100.876 12.528 101.83 12.762 102.934 12.762ZM102.952 11.286C102.208 11.286 101.536 11.124 100.936 10.8C100.336 10.464 99.8623 9.99 99.5143 9.378C99.1783 8.754 99.0103 8.016 99.0103 7.164C99.0103 6.312 99.1783 5.58 99.5143 4.968C99.8623 4.356 100.336 3.882 100.936 3.546C101.536 3.21 102.208 3.042 102.952 3.042C103.876 3.042 104.674 3.294 105.346 3.798C106.03 4.302 106.474 5.004 106.678 5.904H104.662C104.53 5.508 104.308 5.202 103.996 4.986C103.696 4.758 103.33 4.644 102.898 4.644C102.334 4.644 101.86 4.854 101.476 5.274C101.104 5.694 100.918 6.324 100.918 7.164C100.918 8.004 101.104 8.64 101.476 9.072C101.86 9.492 102.334 9.702 102.898 9.702C103.354 9.702 103.726 9.588 104.014 9.36C104.302 9.132 104.518 8.826 104.662 8.442H106.678C106.474 9.306 106.03 9.996 105.346 10.512C104.674 11.028 103.876 11.286 102.952 11.286ZM116.218 13.5V11.826C116.986 11.19 117.73 10.56 118.45 9.936C119.182 9.312 119.83 8.694 120.394 8.082C120.97 7.47 121.426 6.876 121.762 6.3C122.11 5.712 122.284 5.142 122.284 4.59C122.284 4.074 122.14 3.618 121.852 3.222C121.576 2.826 121.114 2.628 120.466 2.628C119.806 2.628 119.308 2.844 118.972 3.276C118.636 3.708 118.468 4.23 118.468 4.842H116.236C116.26 3.918 116.464 3.15 116.848 2.538C117.232 1.914 117.742 1.452 118.378 1.152C119.014 0.84 119.728 0.684 120.52 0.684C121.804 0.684 122.8 1.038 123.508 1.746C124.228 2.442 124.588 3.348 124.588 4.464C124.588 5.16 124.426 5.838 124.102 6.498C123.79 7.158 123.376 7.794 122.86 8.406C122.344 9.018 121.786 9.594 121.186 10.134C120.586 10.662 120.004 11.154 119.44 11.61H124.894V13.5H116.218ZM132.385 13.716C131.221 13.716 130.225 13.446 129.397 12.906C128.569 12.354 127.927 11.592 127.471 10.62C127.027 9.636 126.805 8.496 126.805 7.2C126.805 5.916 127.027 4.782 127.471 3.798C127.927 2.814 128.569 2.052 129.397 1.512C130.225 0.96 131.221 0.684 132.385 0.684C133.549 0.684 134.545 0.96 135.373 1.512C136.201 2.052 136.837 2.814 137.281 3.798C137.737 4.782 137.965 5.916 137.965 7.2C137.965 8.496 137.737 9.636 137.281 10.62C136.837 11.592 136.201 12.354 135.373 12.906C134.545 13.446 133.549 13.716 132.385 13.716ZM132.385 11.646C133.333 11.646 134.107 11.25 134.707 10.458C135.307 9.666 135.607 8.58 135.607 7.2C135.607 5.82 135.307 4.734 134.707 3.942C134.107 3.15 133.333 2.754 132.385 2.754C131.425 2.754 130.645 3.15 130.045 3.942C129.457 4.734 129.163 5.82 129.163 7.2C129.163 8.58 129.457 9.666 130.045 10.458C130.645 11.25 131.425 11.646 132.385 11.646ZM141.866 13.5V3.528L139.796 4.014V2.25L142.838 0.899999H144.26V13.5H141.866ZM151.505 13.716C150.629 13.716 149.891 13.548 149.291 13.212C148.691 12.864 148.223 12.414 147.887 11.862C147.551 11.31 147.353 10.716 147.293 10.08H149.435C149.531 10.632 149.759 11.058 150.119 11.358C150.491 11.658 150.959 11.808 151.523 11.808C152.327 11.808 152.975 11.442 153.467 10.71C153.959 9.966 154.223 8.838 154.259 7.326C153.971 7.818 153.533 8.226 152.945 8.55C152.369 8.874 151.733 9.036 151.037 9.036C150.341 9.036 149.687 8.868 149.075 8.532C148.463 8.196 147.965 7.722 147.581 7.11C147.197 6.498 147.005 5.778 147.005 4.95C147.005 4.194 147.191 3.492 147.563 2.844C147.935 2.196 148.451 1.674 149.111 1.278C149.771 0.882 150.545 0.684 151.433 0.684C152.381 0.684 153.179 0.858 153.827 1.206C154.475 1.554 154.991 2.022 155.375 2.61C155.771 3.198 156.053 3.852 156.221 4.572C156.401 5.292 156.491 6.03 156.491 6.786C156.491 8.19 156.293 9.414 155.897 10.458C155.513 11.49 154.943 12.294 154.187 12.87C153.443 13.434 152.549 13.716 151.505 13.716ZM151.577 7.092C152.021 7.092 152.423 6.996 152.783 6.804C153.143 6.6 153.425 6.336 153.629 6.012C153.833 5.676 153.935 5.304 153.935 4.896C153.935 4.248 153.707 3.714 153.251 3.294C152.807 2.874 152.243 2.664 151.559 2.664C150.887 2.664 150.329 2.874 149.885 3.294C149.441 3.702 149.219 4.224 149.219 4.86C149.219 5.532 149.441 6.072 149.885 6.48C150.329 6.888 150.893 7.092 151.577 7.092Z" fill="white"/>
</svg>
