<svg width="172" height="70" viewBox="0 0 172 70" fill="none" xmlns="http://www.w3.org/2000/svg">
<g clip-path="url(#clip0_1_318)">
<path d="M36.7742 16.264V8.60813C36.7742 7.76254 36.0884 7.07696 35.2423 7.07696H33.7103V2.48345C33.7103 1.63787 33.0244 0.952286 32.1783 0.952286C30.0094 0.952286 26.6879 0.786154 22.7889 3.1208C20.3651 2.39972 18.651 2.48345 16.8587 2.48345C16.0125 2.48345 15.3267 3.16904 15.3267 4.01462V7.07696H13.7947C12.9486 7.07696 12.2628 7.76254 12.2628 8.60813V16.264C12.2628 22.4999 16.9491 27.662 22.9865 28.4178V48.4185C22.9865 49.2641 23.6724 49.9497 24.5185 49.9497C25.3646 49.9497 26.0505 49.2641 26.0505 48.4185V43.0594H28.3484C32.9944 43.0594 36.7742 39.2816 36.7742 34.638V32.3413C36.7742 31.4957 36.0884 30.8101 35.2423 30.8101H31.4123C29.3772 30.8101 27.5083 31.535 26.0505 32.74V28.4171C32.0788 27.6709 36.7742 22.5344 36.7742 16.264V16.264ZM33.7103 16.264C33.7103 18.989 32.5045 21.4501 30.5989 23.1376C30.6289 22.8919 30.6464 22.6423 30.6464 22.3887C30.6464 18.5111 29.196 14.9662 26.8099 12.2656C28.8328 10.886 31.2312 10.1393 33.7103 10.1393V16.264ZM30.6464 4.01462V7.38588C30.3632 7.44349 30.0821 7.50923 29.8033 7.58263C28.8094 6.47071 27.676 5.5234 26.4384 4.75791C27.7761 4.26909 29.1962 4.01462 30.6464 4.01462V4.01462ZM18.3906 5.54579C21.4342 5.54579 24.3898 6.65656 26.6884 8.77886C25.9298 9.17017 25.2024 9.62636 24.514 10.1436C22.7328 8.80517 20.6515 7.84532 18.3906 7.38482V5.54579ZM15.3267 16.264V10.1393C22.0845 10.1393 27.5824 15.6343 27.5824 22.3887C27.5824 24.0997 26.1687 25.494 24.438 25.4496C19.056 25.3167 15.3267 21.043 15.3267 16.264ZM31.4123 33.8724H33.7103V34.638C33.7103 37.593 31.305 39.9971 28.3484 39.9971H26.0505V39.2315C26.0505 36.2766 28.4558 33.8724 31.4123 33.8724Z" fill="white"/>
</g>
<path d="M56.0496 27.7908V30.9497H46.9708V27.7908H56.0496ZM48.4332 13.9152V30.9497H44.3267V13.9152H48.4332ZM54.8797 20.6775V23.7311H46.9708V20.6775H54.8797ZM56.0847 13.9152V17.0858H46.9708V13.9152H56.0847ZM61.618 13.9152L64.4025 19.5778L67.1869 13.9152H71.8667L67.1167 22.3623L71.9954 30.9497H67.2688L64.4025 25.1819L61.5361 30.9497H56.7978L61.6882 22.3623L56.9265 13.9152H61.618ZM80.4653 25.1702H76.23V21.9996H80.4653C81.0424 21.9996 81.5104 21.9021 81.8692 21.7071C82.228 21.5121 82.4893 21.243 82.6531 20.8998C82.8247 20.5488 82.9105 20.155 82.9105 19.7182C82.9105 19.2502 82.8247 18.8173 82.6531 18.4195C82.4893 18.0218 82.228 17.702 81.8692 17.4602C81.5104 17.2106 81.0424 17.0858 80.4653 17.0858H77.7744V30.9497H73.6679V13.9152H80.4653C81.8302 13.9152 83.0041 14.1648 83.9868 14.664C84.9774 15.1632 85.7378 15.8495 86.2682 16.7231C86.7986 17.5889 87.0638 18.5794 87.0638 19.6948C87.0638 20.7945 86.7986 21.7539 86.2682 22.5729C85.7378 23.3918 84.9774 24.0314 83.9868 24.4916C83.0041 24.944 81.8302 25.1702 80.4653 25.1702ZM100.845 27.7908V30.9497H92.2344V27.7908H100.845ZM93.6968 13.9152V30.9497H89.5903V13.9152H93.6968ZM116.557 22.0932V22.7835C116.557 24.086 116.374 25.2559 116.007 26.2933C115.648 27.3229 115.137 28.2042 114.475 28.9374C113.812 29.6628 113.028 30.2204 112.123 30.6104C111.218 30.9926 110.22 31.1837 109.128 31.1837C108.028 31.1837 107.022 30.9926 106.109 30.6104C105.205 30.2204 104.417 29.6628 103.746 28.9374C103.083 28.2042 102.568 27.3229 102.202 26.2933C101.843 25.2559 101.664 24.086 101.664 22.7835V22.0932C101.664 20.7906 101.843 19.6207 102.202 18.5833C102.568 17.546 103.079 16.6646 103.734 15.9392C104.397 15.2061 105.181 14.6484 106.086 14.2662C106.999 13.8762 108.005 13.6812 109.104 13.6812C110.196 13.6812 111.195 13.8762 112.1 14.2662C113.012 14.6484 113.8 15.2061 114.463 15.9392C115.126 16.6646 115.641 17.546 116.007 18.5833C116.374 19.6207 116.557 20.7906 116.557 22.0932ZM112.392 22.7835V22.0698C112.392 21.2274 112.318 20.4864 112.17 19.8469C112.029 19.1995 111.819 18.6574 111.538 18.2206C111.257 17.7839 110.91 17.4563 110.497 17.2379C110.091 17.0117 109.627 16.8986 109.104 16.8986C108.558 16.8986 108.083 17.0117 107.677 17.2379C107.272 17.4563 106.932 17.7839 106.659 18.2206C106.386 18.6574 106.18 19.1995 106.039 19.8469C105.907 20.4864 105.84 21.2274 105.84 22.0698V22.7835C105.84 23.618 105.907 24.359 106.039 25.0064C106.18 25.6459 106.386 26.188 106.659 26.6326C106.94 27.0772 107.283 27.4126 107.689 27.6387C108.102 27.8649 108.582 27.978 109.128 27.978C109.65 27.978 110.114 27.8649 110.52 27.6387C110.926 27.4126 111.265 27.0772 111.538 26.6326C111.819 26.188 112.029 25.6459 112.17 25.0064C112.318 24.359 112.392 23.618 112.392 22.7835ZM119.002 13.9152H125.705C127.016 13.9152 128.155 14.1102 129.122 14.5002C130.089 14.8902 130.834 15.4674 131.356 16.2317C131.887 16.9961 132.152 17.9399 132.152 19.063C132.152 20.038 132 20.853 131.696 21.5082C131.391 22.1634 130.966 22.7055 130.42 23.1344C129.882 23.5556 129.254 23.9027 128.537 24.1757L127.191 24.9362H121.564L121.54 21.7656H125.705C126.228 21.7656 126.661 21.672 127.004 21.4848C127.347 21.2976 127.605 21.0324 127.776 20.6892C127.956 20.3383 128.045 19.921 128.045 19.4374C128.045 18.946 127.956 18.5248 127.776 18.1738C127.597 17.8229 127.332 17.5538 126.981 17.3666C126.637 17.1794 126.212 17.0858 125.705 17.0858H123.108V30.9497H119.002V13.9152ZM128.326 30.9497L124.559 23.4152L128.911 23.3918L132.725 30.7742V30.9497H128.326ZM146.67 27.7908V30.9497H137.591V27.7908H146.67ZM139.054 13.9152V30.9497H134.947V13.9152H139.054ZM145.5 20.6775V23.7311H137.591V20.6775H145.5ZM146.705 13.9152V17.0858H137.591V13.9152H146.705ZM48.6906 32.9152V49.9497H44.5958V32.9152H48.6906ZM66.1223 32.9152V49.9497H62.0275L56.0022 39.35V49.9497H51.8957V32.9152H56.0022L62.0275 43.515V32.9152H66.1223ZM74.5687 49.9497H70.7898L70.8132 46.7908H74.5687C75.3487 46.7908 76.0078 46.6036 76.5459 46.2293C77.0919 45.8549 77.5053 45.2972 77.7861 44.5562C78.0747 43.8075 78.219 42.8871 78.219 41.7952V41.0581C78.219 40.2391 78.1371 39.5215 77.9733 38.9054C77.8173 38.2814 77.5833 37.7627 77.2713 37.3493C76.9593 36.9282 76.5693 36.6123 76.1014 36.4017C75.6412 36.1911 75.1108 36.0858 74.5102 36.0858H70.7196V32.9152H74.5102C75.6646 32.9152 76.7214 33.1141 77.6808 33.5119C78.6479 33.9019 79.4825 34.4635 80.1845 35.1966C80.8942 35.922 81.4402 36.7839 81.8224 37.7822C82.2124 38.7728 82.4074 39.8725 82.4074 41.0815V41.7952C82.4074 42.9963 82.2124 44.0961 81.8224 45.0944C81.4402 46.0928 80.8981 46.9546 80.1962 47.68C79.4942 48.4054 78.6635 48.9669 77.7042 49.3647C76.7526 49.7547 75.7075 49.9497 74.5687 49.9497ZM73.1414 32.9152V49.9497H69.0348V32.9152H73.1414ZM99.2775 41.0932V41.7835C99.2775 43.086 99.0942 44.2559 98.7276 45.2933C98.3688 46.3229 97.8579 47.2042 97.1949 47.9374C96.532 48.6628 95.7481 49.2204 94.8433 49.6104C93.9386 49.9926 92.9402 50.1837 91.8483 50.1837C90.7485 50.1837 89.7424 49.9926 88.8298 49.6104C87.925 49.2204 87.1373 48.6628 86.4665 47.9374C85.8035 47.2042 85.2887 46.3229 84.9222 45.2933C84.5634 44.2559 84.384 43.086 84.384 41.7835V41.0932C84.384 39.7906 84.5634 38.6207 84.9222 37.5833C85.2887 36.546 85.7996 35.6646 86.4548 34.9392C87.1178 34.2061 87.9016 33.6484 88.8064 33.2662C89.719 32.8762 90.7251 32.6812 91.8249 32.6812C92.9168 32.6812 93.9152 32.8762 94.8199 33.2662C95.7325 33.6484 96.5203 34.2061 97.1832 34.9392C97.8462 35.6646 98.361 36.546 98.7276 37.5833C99.0942 38.6207 99.2775 39.7906 99.2775 41.0932ZM95.1124 41.7835V41.0698C95.1124 40.2274 95.0383 39.4864 94.8901 38.8469C94.7498 38.1995 94.5392 37.6574 94.2584 37.2206C93.9776 36.7839 93.6305 36.4563 93.2171 36.2379C92.8115 36.0117 92.3475 35.8986 91.8249 35.8986C91.2789 35.8986 90.8031 36.0117 90.3975 36.2379C89.992 36.4563 89.6527 36.7839 89.3797 37.2206C89.1067 37.6574 88.9 38.1995 88.7596 38.8469C88.627 39.4864 88.5607 40.2274 88.5607 41.0698V41.7835C88.5607 42.618 88.627 43.359 88.7596 44.0064C88.9 44.6459 89.1067 45.188 89.3797 45.6326C89.6605 46.0772 90.0037 46.4126 90.4092 46.6387C90.8226 46.8649 91.3023 46.978 91.8483 46.978C92.3709 46.978 92.8349 46.8649 93.2405 46.6387C93.6461 46.4126 93.9854 46.0772 94.2584 45.6326C94.5392 45.188 94.7498 44.6459 94.8901 44.0064C95.0383 43.359 95.1124 42.618 95.1124 41.7835ZM115.949 32.9152V49.9497H111.854L105.829 39.35V49.9497H101.722V32.9152H105.829L111.854 43.515V32.9152H115.949ZM130.584 46.7908V49.9497H121.505V46.7908H130.584ZM122.968 32.9152V49.9497H118.861V32.9152H122.968ZM129.414 39.6775V42.7311H121.505V39.6775H129.414ZM130.619 32.9152V36.0858H121.505V32.9152H130.619ZM141.359 45.422C141.359 45.1568 141.32 44.9189 141.242 44.7083C141.164 44.4899 141.019 44.2871 140.809 44.1C140.598 43.9128 140.294 43.7256 139.896 43.5384C139.506 43.3434 138.992 43.1406 138.352 42.93C137.603 42.6804 136.882 42.3996 136.188 42.0876C135.493 41.7679 134.873 41.3974 134.327 40.9762C133.781 40.5472 133.348 40.048 133.029 39.4786C132.709 38.9015 132.549 38.2307 132.549 37.4663C132.549 36.7332 132.713 36.0741 133.04 35.4891C133.368 34.8963 133.824 34.3933 134.409 33.9799C135.002 33.5587 135.696 33.2389 136.492 33.0205C137.287 32.7943 138.157 32.6812 139.101 32.6812C140.349 32.6812 141.448 32.8996 142.4 33.3364C143.359 33.7654 144.108 34.3777 144.646 35.1732C145.192 35.961 145.465 36.8931 145.465 37.9694H141.382C141.382 37.5404 141.292 37.1621 141.113 36.8346C140.941 36.507 140.68 36.2496 140.329 36.0624C139.978 35.8752 139.538 35.7816 139.007 35.7816C138.492 35.7816 138.059 35.8596 137.708 36.0156C137.358 36.1716 137.092 36.3822 136.913 36.6474C136.734 36.9048 136.644 37.1894 136.644 37.5014C136.644 37.7588 136.714 37.9928 136.854 38.2034C137.003 38.4062 137.209 38.5973 137.475 38.7767C137.747 38.9561 138.075 39.1277 138.457 39.2915C138.847 39.4552 139.284 39.6151 139.768 39.7711C140.672 40.0597 141.476 40.3834 142.178 40.7422C142.887 41.0932 143.484 41.4949 143.968 41.9472C144.459 42.3918 144.83 42.8988 145.079 43.4682C145.337 44.0376 145.465 44.681 145.465 45.3986C145.465 46.163 145.317 46.8415 145.021 47.4343C144.724 48.0271 144.299 48.5302 143.745 48.9435C143.192 49.3491 142.529 49.6572 141.757 49.8678C140.984 50.0784 140.122 50.1837 139.171 50.1837C138.297 50.1837 137.436 50.0745 136.585 49.8561C135.743 49.6299 134.979 49.2867 134.292 48.8266C133.606 48.3586 133.056 47.7619 132.643 47.0365C132.237 46.3034 132.034 45.4337 132.034 44.4275H136.152C136.152 44.9267 136.219 45.3479 136.351 45.6911C136.484 46.0343 136.679 46.3112 136.936 46.5218C137.194 46.7245 137.51 46.8727 137.884 46.9663C138.258 47.0521 138.687 47.095 139.171 47.095C139.694 47.095 140.115 47.0209 140.434 46.8727C140.754 46.7167 140.988 46.514 141.136 46.2644C141.285 46.007 141.359 45.7262 141.359 45.422ZM152.262 32.9152V49.9497H148.167V32.9152H152.262ZM162.896 36.4953L158.743 49.9497H154.332L160.591 32.9152H163.388L162.896 36.4953ZM166.336 49.9497L162.171 36.4953L161.633 32.9152H164.464L170.758 49.9497H166.336ZM166.172 43.5969V46.7674H157.433V43.5969H166.172Z" fill="white"/>
<defs>
<clipPath id="clip0_1_318">
<rect width="49.0255" height="49" fill="white" transform="translate(0.0057373 0.949707)"/>
</clipPath>
</defs>
</svg>
