<svg width="24" height="25" viewBox="0 0 24 25" fill="none" xmlns="http://www.w3.org/2000/svg">
<path fill-rule="evenodd" clip-rule="evenodd" d="M19.999 19.5H16.922V13.8967C16.922 12.3596 16.2705 11.5022 15.102 11.5022C13.8305 11.5022 13.0759 12.3956 13.0759 13.8967V19.5H9.99896V9.09243H13.0759V10.2629C13.0759 10.2629 14.0413 8.5 16.2167 8.5C18.3928 8.5 19.999 9.8818 19.999 12.7415C19.999 15.6004 19.999 19.5 19.999 19.5V19.5ZM5.49927 6.5C4.67048 6.5 3.99896 5.82819 3.99896 4.9997C3.99896 4.17181 4.67048 3.5 5.49927 3.5C6.32745 3.5 6.99896 4.17181 6.99896 4.9997C6.99958 5.82819 6.32745 6.5 5.49927 6.5V6.5ZM3.99896 19.5H6.99896V9.5H3.99896V19.5Z" fill="white"/>
</svg>
