<svg width="174" height="67" viewBox="0 0 174 67" fill="none" xmlns="http://www.w3.org/2000/svg">
<g clip-path="url(#clip0_1_85)">
<path d="M38.2483 16.4393V8.47101C38.2483 7.59091 37.5348 6.87735 36.6546 6.87735H35.061V2.09635C35.061 1.21625 34.3475 0.502684 33.4673 0.502684C31.2111 0.502684 27.7558 0.329771 23.6997 2.75971C21.1783 2.0092 19.3951 2.09635 17.5306 2.09635C16.6504 2.09635 15.937 2.80991 15.937 3.69002V6.87735H14.3433C13.4631 6.87735 12.7496 7.59091 12.7496 8.47101V16.4393C12.7496 22.9297 17.6248 28.3026 23.9053 29.0893V49.9063C23.9053 50.7864 24.6188 51.5 25.499 51.5C26.3792 51.5 27.0926 50.7864 27.0926 49.9063V44.3285H29.4831C34.3162 44.3285 38.2483 40.3964 38.2483 35.5633V33.1728C38.2483 32.2927 37.5348 31.5792 36.6546 31.5792H32.6705C30.5534 31.5792 28.6092 32.3337 27.0926 33.5879V29.0885C33.3638 28.3119 38.2483 22.9657 38.2483 16.4393V16.4393ZM35.061 16.4393C35.061 19.2756 33.8066 21.8372 31.8242 23.5935C31.8555 23.3378 31.8736 23.0781 31.8736 22.814C31.8736 18.7781 30.3648 15.0886 27.8827 12.2778C29.987 10.8419 32.482 10.0647 35.061 10.0647V16.4393ZM31.8736 3.69002V7.19887C31.5791 7.25883 31.2867 7.32726 30.9966 7.40366C29.9627 6.24635 28.7836 5.26037 27.4962 4.46364C28.8878 3.95486 30.365 3.69002 31.8736 3.69002V3.69002ZM19.1243 5.28368C22.2904 5.28368 25.3651 6.43979 27.7563 8.64871C26.9671 9.05599 26.2104 9.5308 25.4943 10.0692C23.6413 8.6761 21.4762 7.67707 19.1243 7.19777V5.28368ZM15.937 16.4393V10.0647C22.9669 10.0647 28.6863 15.7839 28.6863 22.814C28.6863 24.5949 27.2156 26.0461 25.4152 25.9998C19.8164 25.8616 15.937 21.4135 15.937 16.4393ZM32.6705 34.7665H35.061V35.5633C35.061 38.6389 32.5588 41.1412 29.4831 41.1412H27.0926V40.3443C27.0926 37.2688 29.5949 34.7665 32.6705 34.7665Z" fill="white"/>
</g>
<path d="M57.8506 21.2814H51.3924V25.3411H59.0205V28.5H47.2859V11.4655H59.0439V14.6361H51.3924V18.2278H57.8506V21.2814ZM67.3616 17.1281L70.1461 11.4655H74.8376L70.0759 19.9126L74.9663 28.5H70.228L67.3616 22.7321L64.4953 28.5H59.7687L64.6474 19.9126L59.8974 11.4655H64.5772L67.3616 17.1281ZM80.7336 22.7204V28.5H76.627V11.4655H83.4245C84.727 11.4655 85.8775 11.7073 86.8758 12.1909C87.882 12.6667 88.658 13.3491 89.204 14.2383C89.7578 15.1197 90.0347 16.1219 90.0347 17.2451C90.0347 18.9064 89.438 20.2362 88.2447 21.2346C87.0591 22.2252 85.429 22.7204 83.3543 22.7204H80.7336ZM80.7336 19.5499H83.4245C84.22 19.5499 84.8245 19.351 85.2379 18.9532C85.6591 18.5554 85.8697 17.9938 85.8697 17.2685C85.8697 16.4729 85.6552 15.8372 85.2262 15.3615C84.7972 14.8857 84.2122 14.6439 83.4713 14.6361H80.7336V19.5499ZM96.656 25.3411H103.804V28.5H92.5495V11.4655H96.656V25.3411ZM119.528 20.3337C119.528 21.9951 119.22 23.4653 118.604 24.7445C117.987 26.0236 117.11 27.0103 115.971 27.7044C114.84 28.3908 113.549 28.734 112.099 28.734C110.648 28.734 109.361 28.4025 108.238 27.7395C107.115 27.0688 106.237 26.1133 105.605 24.8732C104.982 23.633 104.654 22.2096 104.623 20.6028V19.6435C104.623 17.9743 104.927 16.5041 105.535 15.2328C106.151 13.9536 107.029 12.967 108.168 12.2728C109.314 11.5786 110.617 11.2315 112.075 11.2315C113.518 11.2315 114.805 11.5747 115.936 12.2611C117.067 12.9475 117.945 13.9263 118.569 15.1977C119.2 16.4612 119.52 17.9119 119.528 19.5499V20.3337ZM115.351 19.6201C115.351 17.9275 115.066 16.6445 114.497 15.7709C113.936 14.8896 113.128 14.4489 112.075 14.4489C110.016 14.4489 108.928 15.9932 108.811 19.0819L108.799 20.3337C108.799 22.0029 109.076 23.2859 109.63 24.1829C110.184 25.0798 111.007 25.5283 112.099 25.5283C113.136 25.5283 113.936 25.0876 114.497 24.2063C115.059 23.3249 115.343 22.0575 115.351 20.4039V19.6201ZM128.29 22.4865H126.067V28.5H121.961V11.4655H128.665C130.685 11.4655 132.264 11.914 133.403 12.811C134.542 13.7079 135.111 14.9754 135.111 16.6133C135.111 17.7989 134.869 18.7816 134.386 19.5616C133.91 20.3415 133.161 20.9733 132.139 21.4569L135.696 28.3245V28.5H131.297L128.29 22.4865ZM126.067 19.3159H128.665C129.445 19.3159 130.03 19.1131 130.42 18.7075C130.817 18.2941 131.016 17.7209 131.016 16.9877C131.016 16.2545 130.817 15.6812 130.42 15.2679C130.022 14.8467 129.437 14.6361 128.665 14.6361H126.067V19.3159ZM148.471 21.2814H142.013V25.3411H149.641V28.5H137.907V11.4655H149.665V14.6361H142.013V18.2278H148.471V21.2814Z" fill="#DD2242"/>
<path d="M51.6615 50.5H47.5667V33.4655H51.6615V50.5ZM69.0581 50.5H64.9749L58.938 39.9002V50.5H54.8315V33.4655H58.938L64.9632 44.0653V33.4655H69.0581V50.5ZM71.9706 50.5V33.4655H77.4577C78.963 33.4655 80.3163 33.8087 81.5174 34.4951C82.7186 35.1736 83.6545 36.1369 84.3253 37.3849C85.0039 38.625 85.3471 40.0172 85.3549 41.5616V42.3454C85.3549 43.9054 85.0234 45.3054 84.3604 46.5456C83.7052 47.7779 82.7771 48.7451 81.5759 49.447C80.3826 50.1412 79.0488 50.4922 77.5747 50.5H71.9706ZM76.0772 36.6361V47.3411H77.5045C78.6823 47.3411 79.587 46.9239 80.2188 46.0893C80.8506 45.2469 81.1664 43.999 81.1664 42.3454V41.6084C81.1664 39.9626 80.8506 38.7225 80.2188 37.8879C79.587 37.0534 78.6667 36.6361 77.4577 36.6361H76.0772ZM102.202 42.3337C102.202 43.9951 101.893 45.4653 101.277 46.7445C100.661 48.0236 99.7836 49.0103 98.6449 49.7044C97.5139 50.3908 96.2231 50.734 94.7724 50.734C93.3216 50.734 92.0347 50.4025 90.9115 49.7395C89.7884 49.0688 88.9109 48.1133 88.2791 46.8732C87.6552 45.633 87.3276 44.2096 87.2964 42.6028V41.6435C87.2964 39.9743 87.6006 38.5041 88.2089 37.2328C88.8251 35.9536 89.7026 34.967 90.8413 34.2728C91.9879 33.5786 93.2904 33.2315 94.749 33.2315C96.1919 33.2315 97.4788 33.5747 98.6098 34.2611C99.7408 34.9475 100.618 35.9263 101.242 37.1977C101.874 38.4612 102.194 39.9119 102.202 41.5499V42.3337ZM98.0248 41.6201C98.0248 39.9275 97.7401 38.6445 97.1708 37.7709C96.6092 36.8896 95.8019 36.4489 94.749 36.4489C92.6898 36.4489 91.6018 37.9932 91.4848 41.0819L91.4731 42.3337C91.4731 44.0029 91.75 45.2859 92.3038 46.1829C92.8575 47.0798 93.6804 47.5283 94.7724 47.5283C95.8097 47.5283 96.6092 47.0876 97.1708 46.2063C97.7323 45.3249 98.017 44.0575 98.0248 42.4039V41.6201ZM118.861 50.5H114.778L108.741 39.9002V50.5H104.634V33.4655H108.741L114.766 44.0653V33.4655H118.861V50.5ZM132.338 43.2814H125.88V47.3411H133.508V50.5H121.774V33.4655H133.532V36.6361H125.88V40.2278H132.338V43.2814ZM144.283 45.9723C144.283 45.3717 144.068 44.9037 143.639 44.5683C143.218 44.233 142.473 43.8859 141.405 43.5271C140.336 43.1683 139.463 42.8212 138.784 42.4858C136.577 41.4017 135.473 39.9119 135.473 38.0166C135.473 37.0729 135.746 36.2422 136.292 35.5246C136.846 34.7993 137.626 34.2377 138.632 33.8399C139.638 33.4343 140.769 33.2315 142.025 33.2315C143.249 33.2315 144.345 33.4499 145.312 33.8867C146.287 34.3235 147.044 34.9475 147.582 35.7586C148.12 36.562 148.389 37.4823 148.389 38.5197H144.295C144.295 37.8255 144.08 37.2874 143.651 36.9052C143.23 36.523 142.657 36.3319 141.931 36.3319C141.198 36.3319 140.617 36.4957 140.188 36.8233C139.767 37.1431 139.556 37.5525 139.556 38.0517C139.556 38.4885 139.79 38.8863 140.258 39.2451C140.726 39.5961 141.549 39.9626 142.727 40.3448C143.905 40.7192 144.872 41.1248 145.628 41.5616C147.469 42.6223 148.389 44.0848 148.389 45.9489C148.389 47.4386 147.828 48.6086 146.705 49.4587C145.581 50.3089 144.041 50.734 142.083 50.734C140.703 50.734 139.451 50.4883 138.328 49.9969C137.212 49.4977 136.37 48.8192 135.801 47.9612C135.239 47.0954 134.958 46.101 134.958 44.9778H139.077C139.077 45.8904 139.311 46.5651 139.779 47.0018C140.254 47.4308 141.023 47.6453 142.083 47.6453C142.762 47.6453 143.296 47.501 143.686 47.2124C144.084 46.9161 144.283 46.5027 144.283 45.9723ZM155.186 50.5H151.091V33.4655H155.186V50.5ZM168.242 47.3177H162.615L161.632 50.5H157.245L163.492 33.4655H167.353L173.647 50.5H169.237L168.242 47.3177ZM163.597 44.1472H167.259L165.423 38.2389L163.597 44.1472Z" fill="white"/>
<defs>
<clipPath id="clip0_1_85">
<rect width="51" height="51" fill="white" transform="translate(-0.0010376 0.5)"/>
</clipPath>
</defs>
</svg>
